<?xml version="1.0" standalone="no"?>
<!DOCTYPE svg PUBLIC "-//W3C//DTD SVG 20010904//EN"
 "http://www.w3.org/TR/2001/REC-SVG-20010904/DTD/svg10.dtd">
<svg version="1.0" xmlns="http://www.w3.org/2000/svg"
 width="667.000000pt" height="667.000000pt" viewBox="0 0 667.000000 667.000000"
 preserveAspectRatio="xMidYMid meet">
<metadata>
Created by potrace 1.14, written by Peter Selinger 2001-2017
</metadata>
<g transform="translate(0.000000,667.000000) scale(0.100000,-0.100000)"
fill="#000000" stroke="none">
<path d="M360 6656 c-114 -32 -218 -113 -274 -211 -57 -104 -56 -64 -56 -1375
0 -776 4 -1221 11 -1249 26 -115 119 -235 220 -286 113 -58 40 -55 1384 -52
l1240 2 77 37 c100 47 168 116 217 217 l36 76 3 1228 c3 1339 4 1297 -54 1401
-55 98 -165 182 -278 212 -72 19 -2457 19 -2526 0z"/>
<path d="M3770 6656 c-156 -44 -275 -164 -316 -321 -11 -40 -14 -283 -14
-1260 0 -977 3 -1220 14 -1260 38 -143 143 -259 281 -311 48 -18 105 -19 1290
-21 1385 -2 1279 -7 1402 69 101 63 173 170 193 288 8 46 10 418 8 1280 l-3
1215 -24 55 c-56 125 -135 200 -271 259 -31 14 -192 16 -1275 17 -971 2 -1250
0 -1285 -10z"/>
<path d="M340 3171 c-145 -46 -257 -164 -294 -308 -14 -54 -16 -201 -16 -1280
l1 -1218 24 -69 c42 -120 138 -218 265 -272 43 -18 92 -19 1270 -22 1385 -3
1315 -6 1431 71 80 54 148 143 177 232 l22 66 -2 1242 -3 1242 -23 56 c-46
110 -150 211 -264 257 -40 16 -137 17 -1288 19 -1159 1 -1249 0 -1300 -16z"/>
<path d="M3775 3176 c-157 -39 -284 -168 -324 -328 -8 -35 -11 -372 -9 -1280
l3 -1233 25 -55 c13 -30 42 -79 64 -108 39 -53 141 -132 170 -132 8 0 17 -4
20 -9 19 -30 130 -32 1346 -29 l1225 3 77 37 c125 59 209 160 244 293 20 75
20 2446 0 2522 -39 146 -128 244 -286 312 -31 14 -192 16 -1270 18 -962 1
-1246 -1 -1285 -11z"/>
</g>
</svg>
